<svg xmlns="http://www.w3.org/2000/svg" width="18" height="16.876" viewBox="0 0 18 16.876">
  <g id="excel" transform="translate(0 -15.989)">
    <g id="Group_47" data-name="Group 47" transform="translate(0 15.989)">
      <g id="Group_46" data-name="Group 46" transform="translate(0 0)">
        <path id="Path_63" data-name="Path 63" d="M17.438,18.24H10.125V16.553a.561.561,0,0,0-.2-.433A.553.553,0,0,0,9.459,16l-9,1.688A.561.561,0,0,0,0,18.24V30.615a.562.562,0,0,0,.459.552l9,1.688a.529.529,0,0,0,.1.01.563.563,0,0,0,.563-.562V30.615h7.313A.563.563,0,0,0,18,30.053V18.8A.563.563,0,0,0,17.438,18.24Zm-9.7,8.067a.562.562,0,1,1-.846.74L5.254,25.179,3.819,27.024a.563.563,0,0,1-.889-.692L4.5,24.316,2.952,22.548a.562.562,0,0,1,.847-.74l1.4,1.6L6.869,21.27a.563.563,0,0,1,.888.692l-1.8,2.313Zm9.14,3.183h-6.75V28.365h1.688a.562.562,0,1,0,0-1.125H10.125V26.115h1.688a.562.562,0,1,0,0-1.125H10.125V23.865h1.688a.562.562,0,1,0,0-1.125H10.125V21.615h1.688a.562.562,0,1,0,0-1.125H10.125V19.365h6.75Z" transform="translate(0 -15.989)" fill="#fff"/>
      </g>
    </g>
    <g id="Group_49" data-name="Group 49" transform="translate(13.05 20.458)">
      <g id="Group_48" data-name="Group 48">
        <path id="Path_64" data-name="Path 64" d="M385.856,144.011h-1.237a.619.619,0,1,0,0,1.237h1.237a.619.619,0,1,0,0-1.237Z" transform="translate(-384 -144.011)" fill="#fff"/>
      </g>
    </g>
    <g id="Group_51" data-name="Group 51" transform="translate(13.05 22.692)">
      <g id="Group_50" data-name="Group 50">
        <path id="Path_65" data-name="Path 65" d="M385.856,208.011h-1.237a.619.619,0,1,0,0,1.237h1.237a.619.619,0,1,0,0-1.237Z" transform="translate(-384 -208.011)" fill="#fff"/>
      </g>
    </g>
    <g id="Group_53" data-name="Group 53" transform="translate(13.05 24.926)">
      <g id="Group_52" data-name="Group 52" transform="translate(0 0)">
        <path id="Path_66" data-name="Path 66" d="M385.856,272.011h-1.237a.619.619,0,1,0,0,1.237h1.237a.619.619,0,1,0,0-1.237Z" transform="translate(-384 -272.011)" fill="#fff"/>
      </g>
    </g>
    <g id="Group_55" data-name="Group 55" transform="translate(13.05 27.16)">
      <g id="Group_54" data-name="Group 54">
        <path id="Path_67" data-name="Path 67" d="M385.856,336.011h-1.237a.619.619,0,1,0,0,1.237h1.237a.619.619,0,1,0,0-1.237Z" transform="translate(-384 -336.011)" fill="#fff"/>
      </g>
    </g>
  </g>
</svg>
